# File created by Blade
# Date/Time:  Wed Jan 21 14:58:10 2015
# Frame Rate: 120.000 fps
#------------------------------------------------------
:FULLY-SPECIFIED
:DEGREES
334
root 16.037030 34.915156 -22.677452 -135.145257 -72.238181 -217.105842
Spine -31.132649 53.163456 -28.098459
Head 14.997372 30.624755 0.284990
LeftShoulder -14.473143 -27.464262 23.028480
LeftArm -18.857213 -0.521010 -10.009490
LeftForeArm 10.398895 -0.000000 -5.330493
LeftHand -11.703268 0.000000 -3.343421
LeftHandThumb1 -26.253704 0.000000 33.147579
RightShoulder 7.479592 3.105347 -13.420087
RightArm 59.923711 10.855010 27.589762
RightForeArm -39.810327 -0.000000 9.927496
RightHand -6.237997 -0.000000 8.885270
RightHandThumb1 -24.326973 -0.000000 -32.862282
LeftUpLeg -18.996127 -37.203878 0.901396
LeftLeg -1.579509 -0.000000 0.000000
LeftFoot -7.318654 3.267955 -12.612947
LeftToeBase 32.052885 -0.000000 -0.000000
RightUpLeg 9.445557 -38.125205 -6.445399
RightLeg -1.763229 -0.000000 0.000000
RightFoot -40.134166 -43.869492 32.677055
RightToeBase 22.233220 -0.000000 -0.000000
335
root 16.044859 34.906509 -22.659993 -134.746560 -72.348817 -217.491576
Spine -31.064815 53.056829 -28.006728
Head 15.018797 30.547344 0.338433
LeftShoulder -14.415576 -27.491222 23.015336
LeftArm -18.616151 -0.557558 -9.936653
LeftForeArm 10.443051 -0.000000 -5.351449
LeftHand -11.578155 -0.000000 -3.328643
LeftHandThumb1 -26.253704 0.000000 33.147579
RightShoulder 7.401251 3.141502 -13.419271
RightArm 59.731714 10.881007 27.538271
RightForeArm -39.821572 0.000000 9.900662
RightHand -6.265823 -0.000000 9.067017
RightHandThumb1 -24.326973 -0.000000 -32.862282
LeftUpLeg -19.033050 -37.200496 0.850274
LeftLeg -1.598164 -0.000000 0.000000
LeftFoot -7.285538 3.146388 -12.595589
LeftToeBase 32.182164 -0.000000 -0.000000
RightUpLeg 9.477183 -38.050819 -6.508770
RightLeg -1.694063 -0.000000 0.000000
RightFoot -40.143063 -43.612491 32.642431
RightToeBase 22.135774 -0.000000 -0.000000
336
root 16.054173 34.898711 -22.643368 -134.410071 -72.431370 -217.807252
Spine -31.011119 52.957028 -27.927169
Head 15.034017 30.480718 0.363630
LeftShoulder -14.373506 -27.531376 22.994600
LeftArm -18.377038 -0.602869 -9.833631
LeftForeArm 10.465594 -0.000000 -5.366811
LeftHand -11.555246 0.000000 -3.199009
LeftHandThumb1 -26.253704 0.000000 33.147579
RightShoulder 7.333446 3.142682 -13.391408
RightArm 59.575669 10.885004 27.346909
RightForeArm -39.695179 -0.000000 9.781347
RightHand -6.240186 -0.000000 9.104019
RightHandThumb1 -24.326973 -0.000000 -32.862282
LeftUpLeg -19.063256 -37.140886 0.787576
LeftLeg -1.620646 -0.000000 0.000000
LeftFoot -7.232906 3.017414 -12.584269
LeftToeBase 32.163147 -0.000000 -0.000000
RightUpLeg 9.488717 -37.888364 -6.535679
RightLeg -1.660560 -0.000000 0.000000
RightFoot -40.266854 -43.467899 32.667878
RightToeBase 21.971565 -0.000000 -0.000000
337
root 16.064883 34.891278 -22.625939 -134.087424 -72.508911 -218.105616
Spine -30.966729 52.864521 -27.856904
Head 15.032629 30.402938 0.393640
LeftShoulder -14.320227 -27.591577 22.987347
LeftArm -18.158995 -0.582295 -9.769336
LeftForeArm 10.512134 -0.000000 -5.370146
LeftHand -11.595560 -0.000000 -3.242251
LeftHandThumb1 -26.253704 0.000000 33.147579
RightShoulder 7.257055 3.197138 -13.413295
RightArm 59.350513 10.918582 27.368868
RightForeArm -39.721413 -0.000000 9.813042
RightHand -6.334207 -0.000000 9.241930
RightHandThumb1 -24.326973 -0.000000 -32.862282
LeftUpLeg -19.098329 -37.070706 0.727350
LeftLeg -1.642963 -0.000000 0.000000
LeftFoot -7.181638 2.878228 -12.549773
LeftToeBase 32.307524 -0.000000 -0.000000
RightUpLeg 9.493750 -37.763236 -6.550815
RightLeg -1.666675 -0.000000 0.000000
RightFoot -40.376733 -43.411118 32.732027
RightToeBase 21.952231 -0.000000 -0.000000
338
root 16.078138 34.884221 -22.607823 -133.785461 -72.595958 -218.390482
Spine -30.863535 52.756926 -27.703678
Head 15.044694 30.303433 0.386117
LeftShoulder -14.298958 -27.638193 22.943382
LeftArm -17.907620 -0.634856 -9.650270
LeftForeArm 10.543659 -0.000000 -5.409080
LeftHand -11.645856 -0.000000 -3.327235
LeftHandThumb1 -26.253704 0.000000 33.147579
RightShoulder 7.188646 2.962841 -13.380733
RightArm 59.342310 11.116193 27.102302
RightForeArm -39.583292 -0.000000 9.650622
RightHand -6.381757 -0.000000 9.291883
RightHandThumb1 -24.326973 -0.000000 -32.862282
LeftUpLeg -19.135072 -37.026398 0.684698
LeftLeg -1.665237 -0.000000 0.000000
LeftFoot -7.140891 2.778900 -12.530528
LeftToeBase 32.688750 -0.000000 -0.000000
RightUpLeg 9.493848 -37.730592 -6.559535
RightLeg -1.671708 -0.000000 0.000000
RightFoot -40.503720 -43.297234 32.833108
RightToeBase 21.916366 -0.000000 -0.000000
339
root 16.094461 34.878498 -22.590704 -133.547229 -72.655220 -218.603001
Spine -30.783555 52.676880 -27.579372
Head 15.029963 30.229583 0.338289
LeftShoulder -14.269201 -27.667960 22.890869
LeftArm -17.649927 -0.728990 -9.565762
LeftForeArm 10.594073 -0.000000 -5.458333
LeftHand -11.698751 0.000000 -3.333601
LeftHandThumb1 -26.253704 0.000000 33.147579
RightShoulder 7.130179 2.921018 -13.396223
RightArm 59.192878 11.246008 27.104795
RightForeArm -39.615534 0.000000 9.634226
RightHand -6.299310 -0.000000 9.312676
RightHandThumb1 -24.326973 -0.000000 -32.862282
LeftUpLeg -19.185038 -36.973326 0.660336
LeftLeg -1.690167 -0.000000 0.000000
LeftFoot -7.055790 2.654509 -12.537019
LeftToeBase 32.394129 -0.000000 -0.000000
RightUpLeg 9.460911 -37.743516 -6.551870
RightLeg -1.693590 -0.000000 0.000000
RightFoot -40.565524 -43.280006 32.831615
RightToeBase 21.911650 -0.000000 -0.000000
340
root 16.109580 34.874152 -22.576062 -133.464980 -72.682590 -218.678356
Spine -30.727740 52.658686 -27.480986
Head 15.024274 30.127333 0.306060
LeftShoulder -14.195777 -27.752327 22.825700
LeftArm -17.481723 -0.724368 -9.454879
LeftForeArm 10.611518 -0.000000 -5.433615
LeftHand -11.623589 -0.000000 -3.337969
LeftHandThumb1 -26.253704 0.000000 33.147579
RightShoulder 7.039397 2.893418 -13.379215
RightArm 59.050543 11.291089 26.975558
RightForeArm -39.531164 -0.000000 9.545805
RightHand -6.177787 -0.000000 9.257375
RightHandThumb1 -24.326973 -0.000000 -32.862282
LeftUpLeg -19.193308 -36.908414 0.634654
LeftLeg -1.730591 -0.000000 0.000000
LeftFoot -7.001265 2.600681 -12.516288
LeftToeBase 32.436008 -0.000000 -0.000000
RightUpLeg 9.442417 -37.753385 -6.541376
RightLeg -1.724319 -0.000000 0.000000
RightFoot -40.605189 -43.319728 32.790070
RightToeBase 21.974294 -0.000000 -0.000000
341
root 16.121382 34.871463 -22.563881 -133.404572 -72.724914 -218.741706
Spine -30.658086 52.604714 -27.351787
Head 15.031997 30.052673 0.307778
LeftShoulder -14.148209 -27.798577 22.782435
LeftArm -17.269634 -0.803962 -9.342439
LeftForeArm 10.677776 -0.000000 -5.466979
LeftHand -11.583806 -0.000000 -3.416432
LeftHandThumb1 -26.253704 0.000000 33.147579
RightShoulder 6.979331 2.966958 -13.350115
RightArm 58.837945 11.254615 26.884880
RightForeArm -39.515864 -0.000000 9.473526
RightHand -6.323292 -0.000000 9.331462
RightHandThumb1 -24.326973 -0.000000 -32.862282
LeftUpLeg -19.188239 -36.870333 0.622741
LeftLeg -1.765125 -0.000000 0.000000
LeftFoot -6.957412 2.544775 -12.516303
LeftToeBase 32.418767 -0.000000 -0.000000
RightUpLeg 9.451478 -37.853266 -6.538335
RightLeg -1.765394 -0.000000 0.000000
RightFoot -40.584220 -43.292585 32.739557
RightToeBase 22.027249 -0.000000 -0.000000
342
root 16.135634 34.869765 -22.549989 -133.523027 -72.725413 -218.644725
Spine -30.520479 52.585775 -27.146906
Head 15.019823 30.034605 0.261056
LeftShoulder -14.154046 -27.880980 22.773138
LeftArm -17.114650 -0.796011 -9.283305
LeftForeArm 10.699624 -0.000000 -5.463462
LeftHand -11.635555 -0.000000 -3.343009
LeftHandThumb1 -26.253704 0.000000 33.147579
RightShoulder 6.960528 3.129496 -13.384767
RightArm 58.565525 11.186586 26.940717
RightForeArm -39.650472 -0.000000 9.491425
RightHand -6.340390 -0.000000 9.333056
RightHandThumb1 -24.326973 -0.000000 -32.862282
LeftUpLeg -19.159379 -36.785171 0.596281
LeftLeg -1.788905 -0.000000 0.000000
LeftFoot -6.919094 2.503474 -12.502688
LeftToeBase 32.489431 -0.000000 -0.000000
RightUpLeg 9.454580 -37.927186 -6.543755
RightLeg -1.777897 -0.000000 0.000000
RightFoot -40.589587 -43.238239 32.708383
RightToeBase 22.057856 -0.000000 -0.000000
343
root 16.149098 34.870395 -22.537642 -133.809881 -72.686115 -218.411152
Spine -30.368886 52.643660 -26.934294
Head 15.024671 29.986958 0.212605
LeftShoulder -14.145253 -27.888174 22.691865
LeftArm -16.908101 -0.893074 -9.202201
LeftForeArm 10.725396 -0.000000 -5.476247
LeftHand -11.547241 0.000000 -3.382288
LeftHandThumb1 -26.253704 0.000000 33.147579
RightShoulder 6.884424 3.015012 -13.357551
RightArm 58.484257 11.278088 26.757665
RightForeArm -39.542412 -0.000000 9.431038
RightHand -6.325630 -0.000000 9.389512
RightHandThumb1 -24.326973 -0.000000 -32.862282
LeftUpLeg -19.077568 -36.689766 0.551479
LeftLeg -1.813356 -0.000000 0.000000
LeftFoot -6.858699 2.514902 -12.485935
LeftToeBase 32.294101 -0.000000 -0.000000
RightUpLeg 9.478849 -37.978495 -6.573429
RightLeg -1.756932 -0.000000 0.000000
RightFoot -40.524697 -43.162633 32.609218
RightToeBase 22.047469 -0.000000 -0.000000
